<svg width="282" height="30" viewBox="0 0 282 30" fill="none" xmlns="http://www.w3.org/2000/svg">
<path d="M30 15C30 23.2843 23.2843 30 15 30C6.71573 30 0 23.2843 0 15C0 6.71573 6.71573 0 15 0C23.2843 0 30 6.71573 30 15Z" fill="white"/>
<path d="M8.57143 7.4026H19.6537L21.039 9.35065L19.6537 11.2987H8.57143V7.4026Z" fill="black"/>
<path d="M8.57143 13.6364H15.8242L17.1429 15.5844L15.8242 17.5325H8.57143V13.6364Z" fill="black"/>
<path d="M8.57143 19.0909H12.4675V22.987H8.57143V19.0909Z" fill="black"/>
<path d="M44 7H46.6634L51.294 18.3068H51.4645L56.0952 7H58.7585V21.5455H56.6705V11.0199H56.5355L52.2457 21.5241H50.5128L46.223 11.0128H46.0881V21.5455H44V7Z" fill="white"/>
<path d="M66.3739 21.7656C65.3512 21.7656 64.4587 21.5313 63.6964 21.0625C62.9341 20.5937 62.3422 19.938 61.9208 19.0952C61.4994 18.2524 61.2887 17.2675 61.2887 16.1406C61.2887 15.009 61.4994 14.0194 61.9208 13.1719C62.3422 12.3243 62.9341 11.6662 63.6964 11.1974C64.4587 10.7287 65.3512 10.4943 66.3739 10.4943C67.3967 10.4943 68.2892 10.7287 69.0515 11.1974C69.8138 11.6662 70.4057 12.3243 70.8271 13.1719C71.2485 14.0194 71.4592 15.009 71.4592 16.1406C71.4592 17.2675 71.2485 18.2524 70.8271 19.0952C70.4057 19.938 69.8138 20.5937 69.0515 21.0625C68.2892 21.5313 67.3967 21.7656 66.3739 21.7656ZM66.381 19.983C67.0439 19.983 67.5932 19.8078 68.0288 19.4574C68.4644 19.107 68.7863 18.6406 68.9947 18.0582C69.2077 17.4759 69.3143 16.8343 69.3143 16.1335C69.3143 15.4375 69.2077 14.7983 68.9947 14.2159C68.7863 13.6288 68.4644 13.1577 68.0288 12.8026C67.5932 12.4474 67.0439 12.2699 66.381 12.2699C65.7134 12.2699 65.1594 12.4474 64.7191 12.8026C64.2835 13.1577 63.9592 13.6288 63.7461 14.2159C63.5378 14.7983 63.4336 15.4375 63.4336 16.1335C63.4336 16.8343 63.5378 17.4759 63.7461 18.0582C63.9592 18.6406 64.2835 19.107 64.7191 19.4574C65.1594 19.8078 65.7134 19.983 66.381 19.983Z" fill="white"/>
<path d="M81.223 15.1747V17.0142H75.3139V15.1747H81.223ZM75.9105 10.6364V21.5455H73.8295V10.6364H75.9105ZM82.7074 10.6364V21.5455H80.6335V10.6364H82.7074Z" fill="white"/>
<path d="M87.6293 18.5696L92.4375 10.6364H94.7244V21.5455H92.6435V13.6051L87.8565 21.5455H85.5483V10.6364H87.6293V18.5696Z" fill="white"/>
<path d="M96.2266 12.4688V10.6364H105.431V12.4688H101.873V21.5455H99.799V12.4688H96.2266Z" fill="white"/>
<path d="M111.765 21.7656C110.742 21.7656 109.849 21.5313 109.087 21.0625C108.325 20.5937 107.733 19.938 107.311 19.0952C106.89 18.2524 106.679 17.2675 106.679 16.1406C106.679 15.009 106.89 14.0194 107.311 13.1719C107.733 12.3243 108.325 11.6662 109.087 11.1974C109.849 10.7287 110.742 10.4943 111.765 10.4943C112.787 10.4943 113.68 10.7287 114.442 11.1974C115.204 11.6662 115.796 12.3243 116.218 13.1719C116.639 14.0194 116.85 15.009 116.85 16.1406C116.85 17.2675 116.639 18.2524 116.218 19.0952C115.796 19.938 115.204 20.5937 114.442 21.0625C113.68 21.5313 112.787 21.7656 111.765 21.7656ZM111.772 19.983C112.435 19.983 112.984 19.8078 113.419 19.4574C113.855 19.107 114.177 18.6406 114.385 18.0582C114.598 17.4759 114.705 16.8343 114.705 16.1335C114.705 15.4375 114.598 14.7983 114.385 14.2159C114.177 13.6288 113.855 13.1577 113.419 12.8026C112.984 12.4474 112.435 12.2699 111.772 12.2699C111.104 12.2699 110.55 12.4474 110.11 12.8026C109.674 13.1577 109.35 13.6288 109.137 14.2159C108.928 14.7983 108.824 15.4375 108.824 16.1335C108.824 16.8343 108.928 17.4759 109.137 18.0582C109.35 18.6406 109.674 19.107 110.11 19.4574C110.55 19.8078 111.104 19.983 111.772 19.983Z" fill="white"/>
<path d="M119.22 25.6364V10.6364H121.294V12.4048H121.472C121.595 12.1776 121.772 11.9148 122.004 11.6165C122.236 11.3182 122.558 11.0578 122.97 10.8352C123.382 10.608 123.927 10.4943 124.604 10.4943C125.484 10.4943 126.27 10.7169 126.962 11.1619C127.653 11.607 128.195 12.2486 128.588 13.0866C128.986 13.9247 129.185 14.9332 129.185 16.1122C129.185 17.2912 128.988 18.3021 128.595 19.1449C128.202 19.983 127.662 20.6293 126.976 21.0838C126.289 21.5336 125.506 21.7585 124.625 21.7585C123.962 21.7585 123.42 21.6473 122.999 21.4247C122.582 21.2022 122.255 20.9418 122.018 20.6435C121.782 20.3452 121.599 20.08 121.472 19.848H121.344V25.6364H119.22ZM121.301 16.0909C121.301 16.858 121.412 17.5303 121.635 18.108C121.857 18.6856 122.179 19.1378 122.601 19.4645C123.022 19.7865 123.538 19.9474 124.149 19.9474C124.784 19.9474 125.314 19.7794 125.74 19.4432C126.166 19.1023 126.488 18.6406 126.706 18.0582C126.929 17.4759 127.04 16.8201 127.04 16.0909C127.04 15.3712 126.931 14.7249 126.713 14.152C126.5 13.5791 126.178 13.1269 125.747 12.7955C125.321 12.464 124.788 12.2983 124.149 12.2983C123.534 12.2983 123.013 12.4569 122.587 12.7741C122.165 13.0914 121.846 13.5341 121.628 14.1023C121.41 14.6705 121.301 15.3333 121.301 16.0909Z" fill="white"/>
<path d="M133.645 18.5696L138.453 10.6364H140.74V21.5455H138.659V13.6051L133.872 21.5455H131.564V10.6364H133.645V18.5696Z" fill="white"/>
<path d="M150.989 15.1747V17.0142H145.08V15.1747H150.989ZM145.676 10.6364V21.5455H143.595V10.6364H145.676ZM152.473 10.6364V21.5455H150.399V10.6364H152.473Z" fill="white"/>
<path d="M162.288 10.6364V12.4688H157.409V21.5455H155.314V10.6364H162.288Z" fill="white"/>
<path d="M169.215 12.4688V10.6364H178.419V12.4688H174.861V21.5455H172.787V12.4688H169.215Z" fill="white"/>
<path d="M180.665 25.6364V10.6364H182.739V12.4048H182.917C183.04 12.1776 183.218 11.9148 183.45 11.6165C183.682 11.3182 184.004 11.0578 184.415 10.8352C184.827 10.608 185.372 10.4943 186.049 10.4943C186.93 10.4943 187.716 10.7169 188.407 11.1619C189.098 11.607 189.64 12.2486 190.033 13.0866C190.431 13.9247 190.63 14.9332 190.63 16.1122C190.63 17.2912 190.433 18.3021 190.04 19.1449C189.647 19.983 189.108 20.6293 188.421 21.0838C187.735 21.5336 186.951 21.7585 186.07 21.7585C185.407 21.7585 184.865 21.6473 184.444 21.4247C184.027 21.2022 183.701 20.9418 183.464 20.6435C183.227 20.3452 183.045 20.08 182.917 19.848H182.789V25.6364H180.665ZM182.746 16.0909C182.746 16.858 182.858 17.5303 183.08 18.108C183.303 18.6856 183.625 19.1378 184.046 19.4645C184.468 19.7865 184.984 19.9474 185.594 19.9474C186.229 19.9474 186.759 19.7794 187.185 19.4432C187.612 19.1023 187.933 18.6406 188.151 18.0582C188.374 17.4759 188.485 16.8201 188.485 16.0909C188.485 15.3712 188.376 14.7249 188.158 14.152C187.945 13.5791 187.623 13.1269 187.192 12.7955C186.766 12.464 186.234 12.2983 185.594 12.2983C184.979 12.2983 184.458 12.4569 184.032 12.7741C183.611 13.0914 183.291 13.5341 183.073 14.1023C182.855 14.6705 182.746 15.3333 182.746 16.0909Z" fill="white"/>
<path d="M196.184 21.7869C195.493 21.7869 194.868 21.6591 194.309 21.4034C193.75 21.143 193.308 20.7666 192.981 20.2741C192.659 19.7817 192.498 19.178 192.498 18.4631C192.498 17.8475 192.616 17.3409 192.853 16.9432C193.09 16.5455 193.409 16.2306 193.812 15.9986C194.214 15.7666 194.664 15.5914 195.161 15.473C195.658 15.3546 196.165 15.2647 196.681 15.2031C197.335 15.1274 197.865 15.0658 198.272 15.0185C198.679 14.9664 198.975 14.8835 199.16 14.7699C199.344 14.6563 199.437 14.4716 199.437 14.2159V14.1662C199.437 13.5459 199.262 13.0653 198.911 12.7244C198.566 12.3835 198.049 12.2131 197.363 12.2131C196.648 12.2131 196.085 12.3717 195.673 12.6889C195.265 13.0014 194.984 13.3494 194.827 13.733L192.832 13.2784C193.068 12.6155 193.414 12.0805 193.869 11.6733C194.328 11.2614 194.856 10.9631 195.452 10.7784C196.049 10.589 196.676 10.4943 197.335 10.4943C197.77 10.4943 198.232 10.5464 198.719 10.6506C199.212 10.75 199.671 10.9347 200.097 11.2045C200.528 11.4744 200.881 11.8603 201.156 12.3622C201.43 12.8594 201.567 13.5057 201.567 14.3011V21.5455H199.494V20.054H199.408C199.271 20.3286 199.065 20.5985 198.79 20.8636C198.516 21.1288 198.163 21.349 197.732 21.5241C197.301 21.6993 196.785 21.7869 196.184 21.7869ZM196.646 20.0824C197.233 20.0824 197.735 19.9664 198.151 19.7344C198.573 19.5024 198.892 19.1993 199.11 18.8253C199.333 18.4465 199.444 18.0417 199.444 17.6108V16.2045C199.368 16.2803 199.221 16.3513 199.004 16.4176C198.79 16.4792 198.547 16.5336 198.272 16.581C197.997 16.6236 197.73 16.6638 197.469 16.7017C197.209 16.7348 196.991 16.7633 196.816 16.7869C196.404 16.839 196.028 16.9266 195.687 17.0497C195.351 17.1728 195.081 17.3504 194.877 17.5824C194.678 17.8097 194.579 18.1127 194.579 18.4915C194.579 19.017 194.773 19.4148 195.161 19.6847C195.549 19.9498 196.044 20.0824 196.646 20.0824Z" fill="white"/>
<path d="M211.789 15.1747V17.0142H205.88V15.1747H211.789ZM206.477 10.6364V21.5455H204.396V10.6364H206.477ZM213.274 10.6364V21.5455H211.2V10.6364H213.274Z" fill="white"/>
<path d="M220.71 21.7656C219.654 21.7656 218.745 21.5265 217.983 21.0483C217.225 20.5653 216.643 19.9001 216.235 19.0526C215.828 18.205 215.625 17.2344 215.625 16.1406C215.625 15.0327 215.833 14.0549 216.25 13.2074C216.666 12.3551 217.253 11.6899 218.011 11.2116C218.769 10.7334 219.661 10.4943 220.689 10.4943C221.517 10.4943 222.256 10.6482 222.904 10.956C223.553 11.259 224.076 11.6851 224.474 12.2344C224.877 12.7836 225.116 13.4252 225.191 14.1591H223.125C223.011 13.6477 222.751 13.2074 222.343 12.8381C221.941 12.4688 221.401 12.2841 220.724 12.2841C220.132 12.2841 219.614 12.4403 219.169 12.7528C218.728 13.0606 218.385 13.5009 218.139 14.0739C217.893 14.642 217.77 15.3144 217.77 16.0909C217.77 16.8864 217.89 17.5729 218.132 18.1506C218.373 18.7282 218.714 19.1757 219.154 19.4929C219.6 19.8101 220.123 19.9688 220.724 19.9688C221.127 19.9688 221.491 19.8954 221.818 19.7486C222.149 19.5971 222.426 19.3816 222.649 19.1023C222.876 18.8229 223.035 18.4867 223.125 18.0938H225.191C225.116 18.7992 224.886 19.429 224.502 19.983C224.119 20.5369 223.605 20.9725 222.961 21.2898C222.322 21.607 221.572 21.7656 220.71 21.7656Z" fill="white"/>
<path d="M227.462 21.5455V10.6364H236.362V21.5455H234.281V12.4688H229.529V21.5455H227.462Z" fill="white"/>
<path d="M243.796 21.7656C242.773 21.7656 241.881 21.5313 241.118 21.0625C240.356 20.5937 239.764 19.938 239.343 19.0952C238.921 18.2524 238.711 17.2675 238.711 16.1406C238.711 15.009 238.921 14.0194 239.343 13.1719C239.764 12.3243 240.356 11.6662 241.118 11.1974C241.881 10.7287 242.773 10.4943 243.796 10.4943C244.819 10.4943 245.711 10.7287 246.473 11.1974C247.236 11.6662 247.828 12.3243 248.249 13.1719C248.67 14.0194 248.881 15.009 248.881 16.1406C248.881 17.2675 248.67 18.2524 248.249 19.0952C247.828 19.938 247.236 20.5937 246.473 21.0625C245.711 21.5313 244.819 21.7656 243.796 21.7656ZM243.803 19.983C244.466 19.983 245.015 19.8078 245.451 19.4574C245.886 19.107 246.208 18.6406 246.417 18.0582C246.63 17.4759 246.736 16.8343 246.736 16.1335C246.736 15.4375 246.63 14.7983 246.417 14.2159C246.208 13.6288 245.886 13.1577 245.451 12.8026C245.015 12.4474 244.466 12.2699 243.803 12.2699C243.135 12.2699 242.581 12.4474 242.141 12.8026C241.705 13.1577 241.381 13.6288 241.168 14.2159C240.96 14.7983 240.855 15.4375 240.855 16.1335C240.855 16.8343 240.96 17.4759 241.168 18.0582C241.381 18.6406 241.705 19.107 242.141 19.4574C242.581 19.8078 243.135 19.983 243.803 19.983Z" fill="white"/>
<path d="M251.251 25.6364V10.6364H253.325V12.4048H253.503C253.626 12.1776 253.803 11.9148 254.036 11.6165C254.268 11.3182 254.589 11.0578 255.001 10.8352C255.413 10.608 255.958 10.4943 256.635 10.4943C257.516 10.4943 258.302 10.7169 258.993 11.1619C259.684 11.607 260.226 12.2486 260.619 13.0866C261.017 13.9247 261.216 14.9332 261.216 16.1122C261.216 17.2912 261.019 18.3021 260.626 19.1449C260.233 19.983 259.694 20.6293 259.007 21.0838C258.321 21.5336 257.537 21.7585 256.656 21.7585C255.993 21.7585 255.451 21.6473 255.03 21.4247C254.613 21.2022 254.286 20.9418 254.05 20.6435C253.813 20.3452 253.631 20.08 253.503 19.848H253.375V25.6364H251.251ZM253.332 16.0909C253.332 16.858 253.444 17.5303 253.666 18.108C253.889 18.6856 254.211 19.1378 254.632 19.4645C255.053 19.7865 255.57 19.9474 256.18 19.9474C256.815 19.9474 257.345 19.7794 257.771 19.4432C258.197 19.1023 258.519 18.6406 258.737 18.0582C258.96 17.4759 259.071 16.8201 259.071 16.0909C259.071 15.3712 258.962 14.7249 258.744 14.152C258.531 13.5791 258.209 13.1269 257.778 12.7955C257.352 12.464 256.82 12.2983 256.18 12.2983C255.565 12.2983 255.044 12.4569 254.618 12.7741C254.197 13.0914 253.877 13.5341 253.659 14.1023C253.441 14.6705 253.332 15.3333 253.332 16.0909Z" fill="white"/>
<path d="M262.281 12.4688V10.6364H271.486V12.4688H267.928V21.5455H265.854V12.4688H262.281Z" fill="white"/>
<path d="M276.399 21.7869C275.708 21.7869 275.083 21.6591 274.524 21.4034C273.965 21.143 273.522 20.7666 273.196 20.2741C272.874 19.7817 272.713 19.178 272.713 18.4631C272.713 17.8475 272.831 17.3409 273.068 16.9432C273.305 16.5455 273.624 16.2306 274.027 15.9986C274.429 15.7666 274.879 15.5914 275.376 15.473C275.873 15.3546 276.38 15.2647 276.896 15.2031C277.549 15.1274 278.08 15.0658 278.487 15.0185C278.894 14.9664 279.19 14.8835 279.375 14.7699C279.559 14.6563 279.652 14.4716 279.652 14.2159V14.1662C279.652 13.5459 279.476 13.0653 279.126 12.7244C278.78 12.3835 278.264 12.2131 277.578 12.2131C276.863 12.2131 276.299 12.3717 275.887 12.6889C275.48 13.0014 275.199 13.3494 275.042 13.733L273.047 13.2784C273.283 12.6155 273.629 12.0805 274.083 11.6733C274.543 11.2614 275.071 10.9631 275.667 10.7784C276.264 10.589 276.891 10.4943 277.549 10.4943C277.985 10.4943 278.447 10.5464 278.934 10.6506C279.427 10.75 279.886 10.9347 280.312 11.2045C280.743 11.4744 281.096 11.8603 281.37 12.3622C281.645 12.8594 281.782 13.5057 281.782 14.3011V21.5455H279.708V20.054H279.623C279.486 20.3286 279.28 20.5985 279.005 20.8636C278.731 21.1288 278.378 21.349 277.947 21.5241C277.516 21.6993 277 21.7869 276.399 21.7869ZM276.86 20.0824C277.448 20.0824 277.949 19.9664 278.366 19.7344C278.788 19.5024 279.107 19.1993 279.325 18.8253C279.547 18.4465 279.659 18.0417 279.659 17.6108V16.2045C279.583 16.2803 279.436 16.3513 279.218 16.4176C279.005 16.4792 278.761 16.5336 278.487 16.581C278.212 16.6236 277.945 16.6638 277.684 16.7017C277.424 16.7348 277.206 16.7633 277.031 16.7869C276.619 16.839 276.243 16.9266 275.902 17.0497C275.565 17.1728 275.296 17.3504 275.092 17.5824C274.893 17.8097 274.794 18.1127 274.794 18.4915C274.794 19.017 274.988 19.4148 275.376 19.6847C275.764 19.9498 276.259 20.0824 276.86 20.0824Z" fill="white"/>
</svg>
