<svg width="171" height="31" viewBox="0 0 171 31" fill="none" xmlns="http://www.w3.org/2000/svg">
<path fill-rule="evenodd" clip-rule="evenodd" d="M18.5455 11.6881L15.0059 0L14.9941 0.038961V2.63972e-05L11.4545 11.6881L0.0117989 11.6882L0 11.6882L9.26686 18.9118L5.72724 30.6L5.74267 30.588L5.73904 30.6L15.0059 23.3763L24.2728 30.6L20.7331 18.9118L30 11.6882L18.5455 11.6881ZM15.7386 9.91666V21.1744L20.2014 24.6533L18.2169 18.1003L23.6246 13.8849H16.9403L15.7386 9.91666Z" fill="white"/>
<path d="M57.1037 15.4716C57.1037 17.0246 56.8196 18.3598 56.2514 19.4773C55.6832 20.59 54.9044 21.447 53.9148 22.0483C52.9299 22.6449 51.8101 22.9432 50.5554 22.9432C49.2959 22.9432 48.1714 22.6449 47.1818 22.0483C46.197 21.447 45.4205 20.5876 44.8523 19.4702C44.2841 18.3527 44 17.0199 44 15.4716C44 13.9186 44.2841 12.5857 44.8523 11.473C45.4205 10.3556 46.197 9.49858 47.1818 8.90199C48.1714 8.30066 49.2959 8 50.5554 8C51.8101 8 52.9299 8.30066 53.9148 8.90199C54.9044 9.49858 55.6832 10.3556 56.2514 11.473C56.8196 12.5857 57.1037 13.9186 57.1037 15.4716ZM54.9304 15.4716C54.9304 14.2879 54.7386 13.2912 54.3551 12.4815C53.9763 11.6671 53.4555 11.0516 52.7926 10.6349C52.1345 10.2135 51.3887 10.0028 50.5554 10.0028C49.7173 10.0028 48.9692 10.2135 48.3111 10.6349C47.6529 11.0516 47.1321 11.6671 46.7486 12.4815C46.3698 13.2912 46.1804 14.2879 46.1804 15.4716C46.1804 16.6553 46.3698 17.6544 46.7486 18.4688C47.1321 19.2784 47.6529 19.8939 48.3111 20.3153C48.9692 20.732 49.7173 20.9403 50.5554 20.9403C51.3887 20.9403 52.1345 20.732 52.7926 20.3153C53.4555 19.8939 53.9763 19.2784 54.3551 18.4688C54.7386 17.6544 54.9304 16.6553 54.9304 15.4716Z" fill="white"/>
<path d="M59.6694 26.8352V11.8352H61.7433V13.6037H61.9208C62.0439 13.3764 62.2215 13.1136 62.4535 12.8153C62.6855 12.517 63.0075 12.2566 63.4194 12.0341C63.8313 11.8068 64.3758 11.6932 65.0529 11.6932C65.9336 11.6932 66.7196 11.9157 67.4109 12.3608C68.1022 12.8059 68.6443 13.4474 69.0373 14.2855C69.435 15.1236 69.6339 16.1321 69.6339 17.3111C69.6339 18.4901 69.4374 19.5009 69.0444 20.3438C68.6514 21.1818 68.1116 21.8281 67.4251 22.2827C66.7385 22.7325 65.9549 22.9574 65.0742 22.9574C64.4113 22.9574 63.8692 22.8461 63.4478 22.6236C63.0311 22.401 62.7044 22.1406 62.4677 21.8423C62.2309 21.544 62.0487 21.2789 61.9208 21.0469H61.793V26.8352H59.6694ZM61.7504 17.2898C61.7504 18.0568 61.8616 18.7292 62.0842 19.3068C62.3067 19.8845 62.6287 20.3366 63.0501 20.6634C63.4715 20.9853 63.9876 21.1463 64.5984 21.1463C65.2328 21.1463 65.7631 20.9782 66.1893 20.642C66.6154 20.3011 66.9374 19.8395 67.1552 19.2571C67.3777 18.6747 67.489 18.0189 67.489 17.2898C67.489 16.5701 67.3801 15.9238 67.1623 15.3509C66.9492 14.7779 66.6272 14.3258 66.1964 13.9943C65.7702 13.6629 65.2376 13.4972 64.5984 13.4972C63.9828 13.4972 63.462 13.6558 63.0359 13.973C62.6145 14.2902 62.2949 14.733 62.0771 15.3011C61.8593 15.8693 61.7504 16.5322 61.7504 17.2898Z" fill="white"/>
<path d="M78.9876 11.8352V13.6676H74.1083V22.7443H72.0131V11.8352H78.9876Z" fill="white"/>
<path d="M81.2319 22.7443V11.8352H90.131V22.7443H88.0501V13.6676H83.2987V22.7443H81.2319Z" fill="white"/>
<path d="M97.5653 22.9645C96.5426 22.9645 95.6501 22.7301 94.8878 22.2614C94.1255 21.7926 93.5336 21.1368 93.1122 20.294C92.6908 19.4512 92.4801 18.4664 92.4801 17.3395C92.4801 16.2079 92.6908 15.2183 93.1122 14.3707C93.5336 13.5232 94.1255 12.8651 94.8878 12.3963C95.6501 11.9276 96.5426 11.6932 97.5653 11.6932C98.5881 11.6932 99.4806 11.9276 100.243 12.3963C101.005 12.8651 101.597 13.5232 102.018 14.3707C102.44 15.2183 102.651 16.2079 102.651 17.3395C102.651 18.4664 102.44 19.4512 102.018 20.294C101.597 21.1368 101.005 21.7926 100.243 22.2614C99.4806 22.7301 98.5881 22.9645 97.5653 22.9645ZM97.5724 21.1818C98.2353 21.1818 98.7846 21.0066 99.2202 20.6562C99.6558 20.3059 99.9777 19.8395 100.186 19.2571C100.399 18.6747 100.506 18.0331 100.506 17.3324C100.506 16.6364 100.399 15.9972 100.186 15.4148C99.9777 14.8277 99.6558 14.3565 99.2202 14.0014C98.7846 13.6463 98.2353 13.4688 97.5724 13.4688C96.9048 13.4688 96.3509 13.6463 95.9105 14.0014C95.4749 14.3565 95.1506 14.8277 94.9375 15.4148C94.7292 15.9972 94.625 16.6364 94.625 17.3324C94.625 18.0331 94.7292 18.6747 94.9375 19.2571C95.1506 19.8395 95.4749 20.3059 95.9105 20.6562C96.3509 21.0066 96.9048 21.1818 97.5724 21.1818Z" fill="white"/>
<path d="M104.162 22.7443L104.154 20.9048H104.545C104.848 20.9048 105.101 20.8409 105.305 20.7131C105.513 20.5805 105.684 20.358 105.816 20.0455C105.949 19.733 106.051 19.3021 106.122 18.7528C106.193 18.1989 106.245 17.5028 106.278 16.6648L106.47 11.8352H114.083V22.7443H112.002V13.6676H108.437L108.267 17.375C108.224 18.2746 108.132 19.0606 107.99 19.733C107.852 20.4053 107.651 20.9664 107.386 21.4162C107.121 21.8613 106.78 22.1951 106.363 22.4176C105.947 22.6354 105.44 22.7443 104.843 22.7443H104.162Z" fill="white"/>
<path d="M118.996 19.7685L123.805 11.8352H126.092V22.7443H124.011V14.804L119.224 22.7443H116.915V11.8352H118.996V19.7685Z" fill="white"/>
<path d="M127.594 13.6676V11.8352H136.798V13.6676H133.24V22.7443H131.166V13.6676H127.594Z" fill="white"/>
<path d="M141.125 19.7685L145.934 11.8352H148.221V22.7443H146.14V14.804L141.353 22.7443H139.044V11.8352H141.125V19.7685Z" fill="white"/>
<path d="M151.076 22.7443V11.8352H153.199V16.4091H154.222L157.823 11.8352H160.451L156.225 17.1406L160.5 22.7443H157.865L154.577 18.3835H153.199V22.7443H151.076Z" fill="white"/>
<path d="M165.325 22.9858C164.633 22.9858 164.008 22.858 163.45 22.6023C162.891 22.3419 162.448 21.9654 162.121 21.473C161.799 20.9806 161.638 20.3769 161.638 19.6619C161.638 19.0464 161.757 18.5398 161.994 18.142C162.23 17.7443 162.55 17.4295 162.952 17.1974C163.355 16.9654 163.805 16.7902 164.302 16.6719C164.799 16.5535 165.306 16.4635 165.822 16.402C166.475 16.3262 167.005 16.2647 167.413 16.2173C167.82 16.1652 168.116 16.0824 168.3 15.9688C168.485 15.8551 168.577 15.6705 168.577 15.4148V15.3651C168.577 14.7448 168.402 14.2642 168.052 13.9233C167.706 13.5824 167.19 13.4119 166.504 13.4119C165.789 13.4119 165.225 13.5705 164.813 13.8878C164.406 14.2003 164.124 14.5483 163.968 14.9318L161.972 14.4773C162.209 13.8144 162.555 13.2794 163.009 12.8722C163.469 12.4602 163.996 12.1619 164.593 11.9773C165.19 11.7879 165.817 11.6932 166.475 11.6932C166.911 11.6932 167.372 11.7453 167.86 11.8494C168.353 11.9489 168.812 12.1335 169.238 12.4034C169.669 12.6733 170.022 13.0592 170.296 13.5611C170.571 14.0582 170.708 14.7045 170.708 15.5V22.7443H168.634V21.2528H168.549C168.412 21.5275 168.206 21.7973 167.931 22.0625C167.656 22.3277 167.304 22.5478 166.873 22.723C166.442 22.8982 165.926 22.9858 165.325 22.9858ZM165.786 21.2812C166.373 21.2812 166.875 21.1652 167.292 20.9332C167.713 20.7012 168.033 20.3982 168.251 20.0241C168.473 19.6454 168.585 19.2405 168.585 18.8097V17.4034C168.509 17.4792 168.362 17.5502 168.144 17.6165C167.931 17.678 167.687 17.7325 167.413 17.7798C167.138 17.8224 166.871 17.8627 166.61 17.9006C166.35 17.9337 166.132 17.9621 165.957 17.9858C165.545 18.0379 165.168 18.1255 164.827 18.2486C164.491 18.3717 164.221 18.5492 164.018 18.7812C163.819 19.0085 163.719 19.3116 163.719 19.6903C163.719 20.2159 163.914 20.6136 164.302 20.8835C164.69 21.1487 165.185 21.2812 165.786 21.2812Z" fill="white"/>
</svg>
