<svg width="171" height="31" viewBox="0 0 171 31" fill="none" xmlns="http://www.w3.org/2000/svg">
<path fill-rule="evenodd" clip-rule="evenodd" d="M18.5455 11.6881L15.0059 0L14.9941 0.038961V2.63972e-05L11.4545 11.6881L0.0117989 11.6882L0 11.6882L9.26686 18.9119L5.72724 30.6L5.74267 30.588L5.73904 30.6L15.0059 23.3763L24.2728 30.6L20.7331 18.9118L30 11.6882L18.5455 11.6881ZM15.7386 9.91666V21.1744L20.2014 24.6533L18.2169 18.1003L23.6246 13.8849H16.9403L15.7386 9.91666Z" fill="black"/>
<path d="M57.1037 14.4716C57.1037 16.0246 56.8196 17.3598 56.2514 18.4773C55.6832 19.59 54.9044 20.447 53.9148 21.0483C52.9299 21.6449 51.8101 21.9432 50.5554 21.9432C49.2959 21.9432 48.1714 21.6449 47.1818 21.0483C46.197 20.447 45.4205 19.5876 44.8523 18.4702C44.2841 17.3527 44 16.0199 44 14.4716C44 12.9186 44.2841 11.5857 44.8523 10.473C45.4205 9.35559 46.197 8.49858 47.1818 7.90199C48.1714 7.30066 49.2959 7 50.5554 7C51.8101 7 52.9299 7.30066 53.9148 7.90199C54.9044 8.49858 55.6832 9.35559 56.2514 10.473C56.8196 11.5857 57.1037 12.9186 57.1037 14.4716ZM54.9304 14.4716C54.9304 13.2879 54.7386 12.2912 54.3551 11.4815C53.9763 10.6671 53.4555 10.0516 52.7926 9.63494C52.1345 9.21354 51.3887 9.00284 50.5554 9.00284C49.7173 9.00284 48.9692 9.21354 48.3111 9.63494C47.6529 10.0516 47.1321 10.6671 46.7486 11.4815C46.3698 12.2912 46.1804 13.2879 46.1804 14.4716C46.1804 15.6553 46.3698 16.6544 46.7486 17.4688C47.1321 18.2784 47.6529 18.8939 48.3111 19.3153C48.9692 19.732 49.7173 19.9403 50.5554 19.9403C51.3887 19.9403 52.1345 19.732 52.7926 19.3153C53.4555 18.8939 53.9763 18.2784 54.3551 17.4688C54.7386 16.6544 54.9304 15.6553 54.9304 14.4716Z" fill="black"/>
<path d="M59.6694 25.8352V10.8352H61.7433V12.6037H61.9208C62.0439 12.3764 62.2215 12.1136 62.4535 11.8153C62.6855 11.517 63.0075 11.2566 63.4194 11.0341C63.8313 10.8068 64.3758 10.6932 65.0529 10.6932C65.9336 10.6932 66.7196 10.9157 67.4109 11.3608C68.1022 11.8059 68.6443 12.4474 69.0373 13.2855C69.435 14.1236 69.6339 15.1321 69.6339 16.3111C69.6339 17.4901 69.4374 18.5009 69.0444 19.3438C68.6514 20.1818 68.1116 20.8281 67.4251 21.2827C66.7385 21.7325 65.9549 21.9574 65.0742 21.9574C64.4113 21.9574 63.8692 21.8461 63.4478 21.6236C63.0311 21.401 62.7044 21.1406 62.4677 20.8423C62.2309 20.544 62.0487 20.2789 61.9208 20.0469H61.793V25.8352H59.6694ZM61.7504 16.2898C61.7504 17.0568 61.8616 17.7292 62.0842 18.3068C62.3067 18.8845 62.6287 19.3366 63.0501 19.6634C63.4715 19.9853 63.9876 20.1463 64.5984 20.1463C65.2328 20.1463 65.7631 19.9782 66.1893 19.642C66.6154 19.3011 66.9374 18.8395 67.1552 18.2571C67.3777 17.6747 67.489 17.0189 67.489 16.2898C67.489 15.5701 67.3801 14.9238 67.1623 14.3509C66.9492 13.7779 66.6272 13.3258 66.1964 12.9943C65.7702 12.6629 65.2376 12.4972 64.5984 12.4972C63.9828 12.4972 63.462 12.6558 63.0359 12.973C62.6145 13.2902 62.2949 13.733 62.0771 14.3011C61.8593 14.8693 61.7504 15.5322 61.7504 16.2898Z" fill="black"/>
<path d="M78.9876 10.8352V12.6676H74.1083V21.7443H72.0131V10.8352H78.9876Z" fill="black"/>
<path d="M81.2319 21.7443V10.8352H90.131V21.7443H88.0501V12.6676H83.2987V21.7443H81.2319Z" fill="black"/>
<path d="M97.5653 21.9645C96.5426 21.9645 95.6501 21.7301 94.8878 21.2614C94.1255 20.7926 93.5336 20.1368 93.1122 19.294C92.6908 18.4512 92.4801 17.4664 92.4801 16.3395C92.4801 15.2079 92.6908 14.2183 93.1122 13.3707C93.5336 12.5232 94.1255 11.8651 94.8878 11.3963C95.6501 10.9276 96.5426 10.6932 97.5653 10.6932C98.5881 10.6932 99.4806 10.9276 100.243 11.3963C101.005 11.8651 101.597 12.5232 102.018 13.3707C102.44 14.2183 102.651 15.2079 102.651 16.3395C102.651 17.4664 102.44 18.4512 102.018 19.294C101.597 20.1368 101.005 20.7926 100.243 21.2614C99.4806 21.7301 98.5881 21.9645 97.5653 21.9645ZM97.5724 20.1818C98.2353 20.1818 98.7846 20.0066 99.2202 19.6562C99.6558 19.3059 99.9777 18.8395 100.186 18.2571C100.399 17.6747 100.506 17.0331 100.506 16.3324C100.506 15.6364 100.399 14.9972 100.186 14.4148C99.9777 13.8277 99.6558 13.3565 99.2202 13.0014C98.7846 12.6463 98.2353 12.4688 97.5724 12.4688C96.9048 12.4688 96.3509 12.6463 95.9105 13.0014C95.4749 13.3565 95.1506 13.8277 94.9375 14.4148C94.7292 14.9972 94.625 15.6364 94.625 16.3324C94.625 17.0331 94.7292 17.6747 94.9375 18.2571C95.1506 18.8395 95.4749 19.3059 95.9105 19.6562C96.3509 20.0066 96.9048 20.1818 97.5724 20.1818Z" fill="black"/>
<path d="M104.162 21.7443L104.154 19.9048H104.545C104.848 19.9048 105.101 19.8409 105.305 19.7131C105.513 19.5805 105.684 19.358 105.816 19.0455C105.949 18.733 106.051 18.3021 106.122 17.7528C106.193 17.1989 106.245 16.5028 106.278 15.6648L106.47 10.8352H114.083V21.7443H112.002V12.6676H108.437L108.267 16.375C108.224 17.2746 108.132 18.0606 107.99 18.733C107.852 19.4053 107.651 19.9664 107.386 20.4162C107.121 20.8613 106.78 21.1951 106.363 21.4176C105.947 21.6354 105.44 21.7443 104.843 21.7443H104.162Z" fill="black"/>
<path d="M118.996 18.7685L123.805 10.8352H126.092V21.7443H124.011V13.804L119.224 21.7443H116.915V10.8352H118.996V18.7685Z" fill="black"/>
<path d="M127.594 12.6676V10.8352H136.798V12.6676H133.24V21.7443H131.166V12.6676H127.594Z" fill="black"/>
<path d="M141.125 18.7685L145.934 10.8352H148.221V21.7443H146.14V13.804L141.353 21.7443H139.044V10.8352H141.125V18.7685Z" fill="black"/>
<path d="M151.076 21.7443V10.8352H153.199V15.4091H154.222L157.823 10.8352H160.451L156.225 16.1406L160.5 21.7443H157.865L154.577 17.3835H153.199V21.7443H151.076Z" fill="black"/>
<path d="M165.325 21.9858C164.633 21.9858 164.008 21.858 163.45 21.6023C162.891 21.3419 162.448 20.9654 162.121 20.473C161.799 19.9806 161.638 19.3769 161.638 18.6619C161.638 18.0464 161.757 17.5398 161.994 17.142C162.23 16.7443 162.55 16.4295 162.952 16.1974C163.355 15.9654 163.805 15.7902 164.302 15.6719C164.799 15.5535 165.306 15.4635 165.822 15.402C166.475 15.3262 167.005 15.2647 167.413 15.2173C167.82 15.1652 168.116 15.0824 168.3 14.9688C168.485 14.8551 168.577 14.6705 168.577 14.4148V14.3651C168.577 13.7448 168.402 13.2642 168.052 12.9233C167.706 12.5824 167.19 12.4119 166.504 12.4119C165.789 12.4119 165.225 12.5705 164.813 12.8878C164.406 13.2003 164.124 13.5483 163.968 13.9318L161.972 13.4773C162.209 12.8144 162.555 12.2794 163.009 11.8722C163.469 11.4602 163.996 11.1619 164.593 10.9773C165.19 10.7879 165.817 10.6932 166.475 10.6932C166.911 10.6932 167.372 10.7453 167.86 10.8494C168.353 10.9489 168.812 11.1335 169.238 11.4034C169.669 11.6733 170.022 12.0592 170.296 12.5611C170.571 13.0582 170.708 13.7045 170.708 14.5V21.7443H168.634V20.2528H168.549C168.412 20.5275 168.206 20.7973 167.931 21.0625C167.656 21.3277 167.304 21.5478 166.873 21.723C166.442 21.8982 165.926 21.9858 165.325 21.9858ZM165.786 20.2812C166.373 20.2812 166.875 20.1652 167.292 19.9332C167.713 19.7012 168.033 19.3982 168.251 19.0241C168.473 18.6454 168.585 18.2405 168.585 17.8097V16.4034C168.509 16.4792 168.362 16.5502 168.144 16.6165C167.931 16.678 167.687 16.7325 167.413 16.7798C167.138 16.8224 166.871 16.8627 166.61 16.9006C166.35 16.9337 166.132 16.9621 165.957 16.9858C165.545 17.0379 165.168 17.1255 164.827 17.2486C164.491 17.3717 164.221 17.5492 164.018 17.7812C163.819 18.0085 163.719 18.3116 163.719 18.6903C163.719 19.2159 163.914 19.6136 164.302 19.8835C164.69 20.1487 165.185 20.2812 165.786 20.2812Z" fill="black"/>
</svg>
