<?xml version="1.0" encoding="utf-8"?>
<!-- Generator: Adobe Illustrator 25.0.0, SVG Export Plug-In . SVG Version: 6.00 Build 0)  -->
<svg version="1.1" id="Capa_1" xmlns="http://www.w3.org/2000/svg" xmlns:xlink="http://www.w3.org/1999/xlink" x="0px" y="0px"
	 viewBox="0 0 1031.4 1057" style="enable-background:new 0 0 3231.4 1057;" xml:space="preserve">
<style type="text/css">
	.st0{fill:#3F525D;}
	.st1{fill:url(#SVGID_1_);}
</style>
<linearGradient id="SVGID_1_" gradientUnits="userSpaceOnUse" x1="22.2527" y1="517.1199" x2="1003.7694" y2="517.1199">
	<stop  offset="3.229696e-03" style="stop-color:#234F4B"/>
	<stop  offset="1" style="stop-color:#CCB261"/>
</linearGradient>
<path class="st1" d="M153,850.9c2.6,3,5.2,6.1,8.1,9l0.2-0.2c1.5,1.5,2.9,3.2,4.5,4.7c191.4,191.4,503,191.5,694.4,0
	c191.4-191.4,191.4-503,0-694.4s-503-191.4-694.4,0C-21.3,357-25.5,658.5,153,850.9z M802.2,227.9c13.6,13.6,25.9,27.9,37.2,42.8
	c-1.6,18.4-9.3,36.4-23.4,50.4c-31.7,31.7-83.2,31.7-114.9,0l-0.1,0.1C599.6,225,438.7,226.5,339.3,326
	c-51.8,51.8-77,120.1-75.8,188.1l0.1,0c-0.1,10.6,4,21.3,12.1,29.4c16.1,16.1,42.3,16.1,58.4,0c9-9,12.8-21.1,11.7-32.9
	c-0.1-45.7,16.6-91.8,51.5-126.6c69.1-69.1,181.6-69.1,250.8,0l0.1-0.1c64,58.9,163.9,57.5,226-4.6c6.1-6.1,11.4-12.7,16.4-19.5
	c61.7,148.4,32.3,326.1-88.2,446.6c-159.5,159.5-419,159.5-578.5,0c-2.6-2.6-5.1-5.4-7.7-8.1c-28.4-31.8-27.5-80.6,3-111.1
	c31.6-31.6,83.1-31.6,114.7,0c101.1,101.1,271.1,106.6,372.2,5.5c59.9-59.9,87.5-110.5,76.4-188.4c-0.1-10.4-4.1-20.7-12-28.7
	c-16.1-16.1-42.3-16.1-58.4,0c-7.3,7.3-11.2,16.8-11.8,26.4l-0.2,0c0,0.9,0,1.7,0,2.6c0,0.1,0,0.2,0,0.4
	c0.2,54.1-10.5,88.3-51.9,129.7c-69.1,69.1-187.1,63.6-256.2-5.5c-63.6-63.6-167.1-63.6-230.6,0c-11.6,11.6-21,24.6-28.4,38.3
	c-57.9-147-27.6-321,91-439.7C383.2,68.4,642.7,68.4,802.2,227.9z"/>
</svg>
