<svg width="50" height="50" viewBox="0 0 50 50" fill="none" xmlns="http://www.w3.org/2000/svg">
<path d="M37.1103 32.7281C34.5999 36.1543 30.4802 38.4056 25.8191 38.4056C18.1863 38.4056 11.974 32.3939 11.974 24.9998C11.974 17.6056 18.1863 11.594 25.8191 11.594C30.4802 11.594 34.5999 13.8417 37.1103 17.2715L40.3726 15.0378C37.1393 10.6196 31.8207 7.73157 25.8191 7.73157C15.9848 7.73157 7.98144 15.4775 7.98144 25.0033C7.98144 34.5256 15.9812 42.2715 25.8191 42.2715C31.8244 42.2715 37.1393 39.3799 40.3726 34.9653L37.1103 32.7281Z" fill="white"/>
<path d="M43.6315 37.1922C39.6752 42.5953 33.1686 46.1341 25.8192 46.1341C13.7833 46.1341 3.99259 36.654 3.99259 25C3.99259 13.346 13.7833 3.86591 25.8192 3.86591C33.1686 3.86591 39.6752 7.40467 43.6315 12.8078L46.8902 10.5776C42.2074 4.18601 34.5092 0 25.8192 0C11.5818 0 0 11.2143 0 25C0 38.7857 11.5818 50 25.8192 50C34.5092 50 42.2074 45.814 46.8902 39.4224L43.6315 37.1922Z" fill="white"/>
<path d="M15.3019 23.0574L25.7139 35.6084L50 12.1457L24.8638 28.9671L15.3019 23.0574Z" fill="white"/>
</svg>
