<svg width="187" height="33" viewBox="0 0 187 33" fill="none" xmlns="http://www.w3.org/2000/svg">
<path d="M23.7745 11.4697C22.1789 9.23916 19.5604 7.77348 16.5978 7.77348C11.7463 7.77348 7.79766 11.6873 7.79766 16.5011C7.79766 21.315 11.7463 25.2288 16.5978 25.2288C19.5604 25.2288 22.1789 23.7654 23.7745 21.5325L25.8482 22.9868C23.793 25.8632 20.4125 27.7434 16.5978 27.7434C10.3469 27.7434 5.25992 22.7005 5.25992 16.4988C5.25992 10.2995 10.3446 5.25663 16.5978 5.25663C20.4148 5.25663 23.793 7.13911 25.8482 10.0132L23.7745 11.4697Z" fill="white"/>
<path d="M27.9151 24.5469C25.3839 28.1129 21.221 30.4485 16.5189 30.4485C8.81847 30.4485 2.55443 24.1916 2.55443 16.5C2.55443 8.80836 8.81847 2.5515 16.5189 2.5515C21.221 2.5515 25.3839 4.88708 27.9151 8.45314L30 6.98121C27.004 2.76277 22.0787 0 16.5189 0C7.40993 0 0 7.40144 0 16.5C0 25.5986 7.40993 33 16.5189 33C22.0787 33 27.004 30.2372 30 26.0188L27.9151 24.5469Z" fill="white"/>
<path d="M56.5497 13.929H54.3338C54.2486 13.4555 54.09 13.0388 53.858 12.679C53.6259 12.3191 53.3419 12.0137 53.0057 11.7628C52.6695 11.5118 52.2931 11.3224 51.8764 11.1946C51.4645 11.0668 51.0265 11.0028 50.5625 11.0028C49.7244 11.0028 48.974 11.2135 48.3111 11.6349C47.6529 12.0563 47.1321 12.6742 46.7486 13.4886C46.3698 14.303 46.1804 15.2973 46.1804 16.4716C46.1804 17.6553 46.3698 18.6544 46.7486 19.4688C47.1321 20.2831 47.6553 20.8987 48.3182 21.3153C48.9811 21.732 49.7268 21.9403 50.5554 21.9403C51.0147 21.9403 51.4503 21.8788 51.8622 21.7557C52.2789 21.6278 52.6553 21.4408 52.9915 21.1946C53.3277 20.9484 53.6117 20.6477 53.8438 20.2926C54.0805 19.9328 54.2438 19.5208 54.3338 19.0568L56.5497 19.0639C56.4313 19.7789 56.2017 20.437 55.8608 21.0384C55.5246 21.6349 55.0914 22.151 54.5611 22.5866C54.0355 23.0175 53.4342 23.3513 52.7571 23.5881C52.08 23.8248 51.3414 23.9432 50.5412 23.9432C49.2817 23.9432 48.1596 23.6449 47.1747 23.0483C46.1899 22.447 45.4134 21.5876 44.8452 20.4702C44.2817 19.3527 44 18.0199 44 16.4716C44 14.9186 44.2841 13.5857 44.8523 12.473C45.4205 11.3556 46.197 10.4986 47.1818 9.90199C48.1667 9.30066 49.2865 9 50.5412 9C51.313 9 52.0327 9.11127 52.7003 9.33381C53.3726 9.55161 53.9763 9.87358 54.5114 10.2997C55.0464 10.7211 55.4891 11.2372 55.8395 11.848C56.1899 12.4541 56.4266 13.1477 56.5497 13.929Z" fill="white"/>
<path d="M63.0289 9.19886V23.7443H60.9053V9.19886H63.0289Z" fill="white"/>
<path d="M72.381 23.9645C71.3582 23.9645 70.4657 23.7301 69.7034 23.2614C68.9411 22.7926 68.3492 22.1368 67.9278 21.294C67.5064 20.4512 67.2957 19.4664 67.2957 18.3395C67.2957 17.2079 67.5064 16.2183 67.9278 15.3707C68.3492 14.5232 68.9411 13.8651 69.7034 13.3963C70.4657 12.9276 71.3582 12.6932 72.381 12.6932C73.4037 12.6932 74.2962 12.9276 75.0585 13.3963C75.8208 13.8651 76.4127 14.5232 76.8341 15.3707C77.2555 16.2183 77.4662 17.2079 77.4662 18.3395C77.4662 19.4664 77.2555 20.4512 76.8341 21.294C76.4127 22.1368 75.8208 22.7926 75.0585 23.2614C74.2962 23.7301 73.4037 23.9645 72.381 23.9645ZM72.3881 22.1818C73.0509 22.1818 73.6002 22.0066 74.0358 21.6562C74.4714 21.3059 74.7934 20.8395 75.0017 20.2571C75.2148 19.6747 75.3213 19.0331 75.3213 18.3324C75.3213 17.6364 75.2148 16.9972 75.0017 16.4148C74.7934 15.8277 74.4714 15.3565 74.0358 15.0014C73.6002 14.6463 73.0509 14.4688 72.3881 14.4688C71.7205 14.4688 71.1665 14.6463 70.7261 15.0014C70.2905 15.3565 69.9662 15.8277 69.7531 16.4148C69.5448 16.9972 69.4406 17.6364 69.4406 18.3324C69.4406 19.0331 69.5448 19.6747 69.7531 20.2571C69.9662 20.8395 70.2905 21.3059 70.7261 21.6562C71.1665 22.0066 71.7205 22.1818 72.3881 22.1818Z" fill="white"/>
<path d="M88.6471 19.2202V12.8352H90.7778V23.7443H88.6897V21.8551H88.5761C88.3251 22.4375 87.9227 22.9228 87.3687 23.3111C86.8194 23.6946 86.1353 23.8864 85.3161 23.8864C84.6154 23.8864 83.9951 23.7325 83.4553 23.4247C82.9203 23.1122 82.4989 22.6506 82.1911 22.0398C81.8881 21.429 81.7366 20.6738 81.7366 19.7741V12.8352H83.8602V19.5185C83.8602 20.2618 84.0661 20.8537 84.4781 21.294C84.89 21.7344 85.425 21.9545 86.0832 21.9545C86.4809 21.9545 86.8763 21.8551 87.2692 21.6562C87.667 21.4574 87.996 21.1567 88.2565 20.7543C88.5216 20.3518 88.6518 19.8404 88.6471 19.2202Z" fill="white"/>
<path d="M99.6149 23.9574C98.7342 23.9574 97.9482 23.7325 97.257 23.2827C96.5704 22.8281 96.0306 22.1818 95.6376 21.3438C95.2494 20.5009 95.0553 19.4901 95.0553 18.3111C95.0553 17.1321 95.2517 16.1236 95.6447 15.2855C96.0425 14.4474 96.587 13.8059 97.2783 13.3608C97.9696 12.9157 98.7532 12.6932 99.6291 12.6932C100.306 12.6932 100.851 12.8068 101.263 13.0341C101.679 13.2566 102.001 13.517 102.229 13.8153C102.461 14.1136 102.64 14.3764 102.768 14.6037H102.896V9.19886H105.02V23.7443H102.946V22.0469H102.768C102.64 22.2789 102.456 22.544 102.214 22.8423C101.978 23.1406 101.651 23.401 101.234 23.6236C100.818 23.8461 100.278 23.9574 99.6149 23.9574ZM100.084 22.1463C100.694 22.1463 101.211 21.9853 101.632 21.6634C102.058 21.3366 102.38 20.8845 102.598 20.3068C102.82 19.7292 102.932 19.0568 102.932 18.2898C102.932 17.5322 102.823 16.8693 102.605 16.3011C102.387 15.733 102.068 15.2902 101.646 14.973C101.225 14.6558 100.704 14.4972 100.084 14.4972C99.4445 14.4972 98.9118 14.6629 98.4857 14.9943C98.0595 15.3258 97.7375 15.7779 97.5197 16.3509C97.3067 16.9238 97.2001 17.5701 97.2001 18.2898C97.2001 19.0189 97.309 19.6747 97.5268 20.2571C97.7446 20.8395 98.0666 21.3011 98.4928 21.642C98.9236 21.9782 99.4539 22.1463 100.084 22.1463Z" fill="white"/>
<path d="M122.202 13.929H119.986C119.901 13.4555 119.742 13.0388 119.51 12.679C119.278 12.3191 118.994 12.0137 118.658 11.7628C118.322 11.5118 117.945 11.3224 117.529 11.1946C117.117 11.0668 116.679 11.0028 116.215 11.0028C115.377 11.0028 114.626 11.2135 113.963 11.6349C113.305 12.0563 112.784 12.6742 112.401 13.4886C112.022 14.303 111.833 15.2973 111.833 16.4716C111.833 17.6553 112.022 18.6544 112.401 19.4688C112.784 20.2831 113.308 20.8987 113.971 21.3153C114.633 21.732 115.379 21.9403 116.208 21.9403C116.667 21.9403 117.103 21.8788 117.515 21.7557C117.931 21.6278 118.308 21.4408 118.644 21.1946C118.98 20.9484 119.264 20.6477 119.496 20.2926C119.733 19.9328 119.896 19.5208 119.986 19.0568L122.202 19.0639C122.084 19.7789 121.854 20.437 121.513 21.0384C121.177 21.6349 120.744 22.151 120.213 22.5866C119.688 23.0175 119.087 23.3513 118.409 23.5881C117.732 23.8248 116.994 23.9432 116.194 23.9432C114.934 23.9432 113.812 23.6449 112.827 23.0483C111.842 22.447 111.066 21.5876 110.498 20.4702C109.934 19.3527 109.652 18.0199 109.652 16.4716C109.652 14.9186 109.936 13.5857 110.505 12.473C111.073 11.3556 111.849 10.4986 112.834 9.90199C113.819 9.30066 114.939 9 116.194 9C116.965 9 117.685 9.11127 118.353 9.33381C119.025 9.55161 119.629 9.87358 120.164 10.2997C120.699 10.7211 121.141 11.2372 121.492 11.848C121.842 12.4541 122.079 13.1477 122.202 13.929Z" fill="white"/>
<path d="M131.153 23.9645C130.13 23.9645 129.238 23.7301 128.475 23.2614C127.713 22.7926 127.121 22.1368 126.7 21.294C126.278 20.4512 126.068 19.4664 126.068 18.3395C126.068 17.2079 126.278 16.2183 126.7 15.3707C127.121 14.5232 127.713 13.8651 128.475 13.3963C129.238 12.9276 130.13 12.6932 131.153 12.6932C132.176 12.6932 133.068 12.9276 133.83 13.3963C134.593 13.8651 135.185 14.5232 135.606 15.3707C136.027 16.2183 136.238 17.2079 136.238 18.3395C136.238 19.4664 136.027 20.4512 135.606 21.294C135.185 22.1368 134.593 22.7926 133.83 23.2614C133.068 23.7301 132.176 23.9645 131.153 23.9645ZM131.16 22.1818C131.823 22.1818 132.372 22.0066 132.808 21.6562C133.243 21.3059 133.565 20.8395 133.774 20.2571C133.987 19.6747 134.093 19.0331 134.093 18.3324C134.093 17.6364 133.987 16.9972 133.774 16.4148C133.565 15.8277 133.243 15.3565 132.808 15.0014C132.372 14.6463 131.823 14.4688 131.16 14.4688C130.492 14.4688 129.938 14.6463 129.498 15.0014C129.062 15.3565 128.738 15.8277 128.525 16.4148C128.317 16.9972 128.213 17.6364 128.213 18.3324C128.213 19.0331 128.317 19.6747 128.525 20.2571C128.738 20.8395 129.062 21.3059 129.498 21.6562C129.938 22.0066 130.492 22.1818 131.16 22.1818Z" fill="white"/>
<path d="M142.632 9.19886V23.7443H140.508V9.19886H142.632Z" fill="white"/>
<path d="M149.512 9.19886V23.7443H147.389V9.19886H149.512Z" fill="white"/>
<path d="M158.971 23.9645C157.896 23.9645 156.971 23.7348 156.194 23.2756C155.422 22.8116 154.826 22.1605 154.404 21.3224C153.988 20.4796 153.779 19.4924 153.779 18.3608C153.779 17.2434 153.988 16.2585 154.404 15.4062C154.826 14.554 155.413 13.8887 156.166 13.4105C156.923 12.9323 157.809 12.6932 158.822 12.6932C159.437 12.6932 160.034 12.795 160.612 12.9986C161.189 13.2022 161.708 13.5218 162.167 13.9574C162.626 14.393 162.989 14.9588 163.254 15.6548C163.519 16.3461 163.651 17.1866 163.651 18.1761V18.929H154.98V17.3381H161.571C161.571 16.7794 161.457 16.2846 161.23 15.8537C161.002 15.4181 160.683 15.0748 160.271 14.8239C159.864 14.5729 159.385 14.4474 158.836 14.4474C158.24 14.4474 157.719 14.5942 157.274 14.8878C156.833 15.1766 156.492 15.5554 156.251 16.0241C156.014 16.4882 155.896 16.9924 155.896 17.5369V18.7798C155.896 19.509 156.024 20.1293 156.279 20.6406C156.54 21.152 156.902 21.5426 157.366 21.8125C157.83 22.0777 158.372 22.2102 158.992 22.2102C159.395 22.2102 159.762 22.1534 160.093 22.0398C160.425 21.9214 160.711 21.7462 160.953 21.5142C161.194 21.2822 161.379 20.9957 161.507 20.6548L163.517 21.017C163.356 21.6089 163.067 22.1274 162.65 22.5724C162.238 23.0128 161.72 23.3561 161.095 23.6023C160.474 23.8438 159.767 23.9645 158.971 23.9645Z" fill="white"/>
<path d="M172.503 23.9645C171.447 23.9645 170.538 23.7254 169.776 23.2472C169.018 22.7642 168.436 22.099 168.028 21.2514C167.621 20.4039 167.418 19.4332 167.418 18.3395C167.418 17.2315 167.626 16.2538 168.043 15.4062C168.459 14.554 169.046 13.8887 169.804 13.4105C170.562 12.9323 171.454 12.6932 172.482 12.6932C173.31 12.6932 174.049 12.8471 174.697 13.1548C175.346 13.4579 175.869 13.884 176.267 14.4332C176.67 14.9825 176.909 15.6241 176.984 16.358H174.918C174.804 15.8466 174.544 15.4063 174.136 15.0369C173.734 14.6676 173.194 14.483 172.517 14.483C171.925 14.483 171.407 14.6392 170.962 14.9517C170.521 15.2595 170.178 15.6998 169.932 16.2727C169.686 16.8409 169.562 17.5133 169.562 18.2898C169.562 19.0852 169.683 19.7718 169.925 20.3494C170.166 20.9271 170.507 21.3745 170.947 21.6918C171.393 22.009 171.916 22.1676 172.517 22.1676C172.92 22.1676 173.284 22.0942 173.611 21.9474C173.942 21.7959 174.219 21.5805 174.442 21.3011C174.669 21.0218 174.828 20.6856 174.918 20.2926H176.984C176.909 20.9981 176.679 21.6278 176.295 22.1818C175.912 22.7358 175.398 23.1714 174.754 23.4886C174.115 23.8059 173.365 23.9645 172.503 23.9645Z" fill="white"/>
<path d="M186.248 12.8352V14.5398H180.289V12.8352H186.248ZM181.887 10.2216H184.01V20.5412C184.01 20.9531 184.072 21.2633 184.195 21.4716C184.318 21.6752 184.477 21.8149 184.671 21.8906C184.87 21.9616 185.085 21.9972 185.317 21.9972C185.488 21.9972 185.637 21.9853 185.765 21.9616C185.893 21.938 185.992 21.919 186.063 21.9048L186.447 23.6591C186.323 23.7064 186.148 23.7538 185.921 23.8011C185.694 23.8532 185.41 23.8816 185.069 23.8864C184.51 23.8958 183.989 23.7964 183.506 23.5881C183.023 23.3797 182.633 23.0578 182.334 22.6222C182.036 22.1866 181.887 21.6397 181.887 20.9815V10.2216Z" fill="white"/>
</svg>
