<svg width="187" height="30" viewBox="0 0 187 30" fill="none" xmlns="http://www.w3.org/2000/svg">
<path d="M22.2662 19.6368C20.7599 21.6926 18.2881 23.0433 15.4915 23.0433C10.9118 23.0433 7.18442 19.4363 7.18442 14.9999C7.18442 10.5634 10.9118 6.95638 15.4915 6.95638C18.2881 6.95638 20.7599 8.30505 22.2662 10.3629L24.2236 9.02265C22.2836 6.37174 19.0924 4.63894 15.4915 4.63894C9.59087 4.63894 4.78886 9.28648 4.78886 15.002C4.78886 20.7153 9.58869 25.3629 15.4915 25.3629C19.0946 25.3629 22.2836 23.628 24.2236 20.9792L22.2662 19.6368Z" fill="black"/>
<path d="M26.1789 22.3153C23.8051 25.5572 19.9012 27.6805 15.4915 27.6805C8.27 27.6805 2.39555 21.9924 2.39555 15C2.39555 8.0076 8.27 2.31954 15.4915 2.31954C19.9012 2.31954 23.8051 4.4428 26.1789 7.68468L28.1341 6.34656C25.3244 2.51161 20.7055 0 15.4915 0C6.94907 0 0 6.72858 0 15C0 23.2714 6.94907 30 15.4915 30C20.7055 30 25.3244 27.4884 28.1341 23.6534L26.1789 22.3153Z" fill="black"/>
<path d="M9.18113 13.8345L15.4283 21.3651L30 7.2874L14.9183 17.3803L9.18113 13.8345Z" fill="black"/>
<path d="M56.5497 12.929H54.3338C54.2486 12.4555 54.09 12.0388 53.858 11.679C53.6259 11.3191 53.3419 11.0137 53.0057 10.7628C52.6695 10.5118 52.2931 10.3224 51.8764 10.1946C51.4645 10.0668 51.0265 10.0028 50.5625 10.0028C49.7244 10.0028 48.974 10.2135 48.3111 10.6349C47.6529 11.0563 47.1321 11.6742 46.7486 12.4886C46.3698 13.303 46.1804 14.2973 46.1804 15.4716C46.1804 16.6553 46.3698 17.6544 46.7486 18.4688C47.1321 19.2831 47.6553 19.8987 48.3182 20.3153C48.9811 20.732 49.7268 20.9403 50.5554 20.9403C51.0147 20.9403 51.4503 20.8788 51.8622 20.7557C52.2789 20.6278 52.6553 20.4408 52.9915 20.1946C53.3277 19.9484 53.6117 19.6477 53.8438 19.2926C54.0805 18.9328 54.2438 18.5208 54.3338 18.0568L56.5497 18.0639C56.4313 18.7789 56.2017 19.437 55.8608 20.0384C55.5246 20.6349 55.0914 21.151 54.5611 21.5866C54.0355 22.0175 53.4342 22.3513 52.7571 22.5881C52.08 22.8248 51.3414 22.9432 50.5412 22.9432C49.2817 22.9432 48.1596 22.6449 47.1747 22.0483C46.1899 21.447 45.4134 20.5876 44.8452 19.4702C44.2817 18.3527 44 17.0199 44 15.4716C44 13.9186 44.2841 12.5857 44.8523 11.473C45.4205 10.3556 46.197 9.49858 47.1818 8.90199C48.1667 8.30066 49.2865 8 50.5412 8C51.313 8 52.0327 8.11127 52.7003 8.33381C53.3726 8.55161 53.9763 8.87358 54.5114 9.29972C55.0464 9.72112 55.4891 10.2372 55.8395 10.848C56.1899 11.4541 56.4266 12.1477 56.5497 12.929Z" fill="black"/>
<path d="M63.0289 8.19886V22.7443H60.9053V8.19886H63.0289Z" fill="black"/>
<path d="M72.381 22.9645C71.3582 22.9645 70.4657 22.7301 69.7034 22.2614C68.9411 21.7926 68.3492 21.1368 67.9278 20.294C67.5064 19.4512 67.2957 18.4664 67.2957 17.3395C67.2957 16.2079 67.5064 15.2183 67.9278 14.3707C68.3492 13.5232 68.9411 12.8651 69.7034 12.3963C70.4657 11.9276 71.3582 11.6932 72.381 11.6932C73.4037 11.6932 74.2962 11.9276 75.0585 12.3963C75.8208 12.8651 76.4127 13.5232 76.8341 14.3707C77.2555 15.2183 77.4662 16.2079 77.4662 17.3395C77.4662 18.4664 77.2555 19.4512 76.8341 20.294C76.4127 21.1368 75.8208 21.7926 75.0585 22.2614C74.2962 22.7301 73.4037 22.9645 72.381 22.9645ZM72.3881 21.1818C73.0509 21.1818 73.6002 21.0066 74.0358 20.6562C74.4714 20.3059 74.7934 19.8395 75.0017 19.2571C75.2148 18.6747 75.3213 18.0331 75.3213 17.3324C75.3213 16.6364 75.2148 15.9972 75.0017 15.4148C74.7934 14.8277 74.4714 14.3565 74.0358 14.0014C73.6002 13.6463 73.0509 13.4688 72.3881 13.4688C71.7205 13.4688 71.1665 13.6463 70.7261 14.0014C70.2905 14.3565 69.9662 14.8277 69.7531 15.4148C69.5448 15.9972 69.4406 16.6364 69.4406 17.3324C69.4406 18.0331 69.5448 18.6747 69.7531 19.2571C69.9662 19.8395 70.2905 20.3059 70.7261 20.6562C71.1665 21.0066 71.7205 21.1818 72.3881 21.1818Z" fill="black"/>
<path d="M88.6471 18.2202V11.8352H90.7778V22.7443H88.6897V20.8551H88.5761C88.3251 21.4375 87.9227 21.9228 87.3687 22.3111C86.8194 22.6946 86.1353 22.8864 85.3161 22.8864C84.6154 22.8864 83.9951 22.7325 83.4553 22.4247C82.9203 22.1122 82.4989 21.6506 82.1911 21.0398C81.8881 20.429 81.7366 19.6738 81.7366 18.7741V11.8352H83.8602V18.5185C83.8602 19.2618 84.0661 19.8537 84.4781 20.294C84.89 20.7344 85.425 20.9545 86.0832 20.9545C86.4809 20.9545 86.8763 20.8551 87.2692 20.6562C87.667 20.4574 87.996 20.1567 88.2565 19.7543C88.5216 19.3518 88.6518 18.8404 88.6471 18.2202Z" fill="black"/>
<path d="M99.6149 22.9574C98.7342 22.9574 97.9482 22.7325 97.257 22.2827C96.5704 21.8281 96.0306 21.1818 95.6376 20.3438C95.2494 19.5009 95.0553 18.4901 95.0553 17.3111C95.0553 16.1321 95.2517 15.1236 95.6447 14.2855C96.0425 13.4474 96.587 12.8059 97.2783 12.3608C97.9696 11.9157 98.7532 11.6932 99.6291 11.6932C100.306 11.6932 100.851 11.8068 101.263 12.0341C101.679 12.2566 102.001 12.517 102.229 12.8153C102.461 13.1136 102.64 13.3764 102.768 13.6037H102.896V8.19886H105.02V22.7443H102.946V21.0469H102.768C102.64 21.2789 102.456 21.544 102.214 21.8423C101.978 22.1406 101.651 22.401 101.234 22.6236C100.818 22.8461 100.278 22.9574 99.6149 22.9574ZM100.084 21.1463C100.694 21.1463 101.211 20.9853 101.632 20.6634C102.058 20.3366 102.38 19.8845 102.598 19.3068C102.82 18.7292 102.932 18.0568 102.932 17.2898C102.932 16.5322 102.823 15.8693 102.605 15.3011C102.387 14.733 102.068 14.2902 101.646 13.973C101.225 13.6558 100.704 13.4972 100.084 13.4972C99.4445 13.4972 98.9118 13.6629 98.4857 13.9943C98.0595 14.3258 97.7375 14.7779 97.5197 15.3509C97.3067 15.9238 97.2001 16.5701 97.2001 17.2898C97.2001 18.0189 97.309 18.6747 97.5268 19.2571C97.7446 19.8395 98.0666 20.3011 98.4928 20.642C98.9236 20.9782 99.4539 21.1463 100.084 21.1463Z" fill="black"/>
<path d="M122.202 12.929H119.986C119.901 12.4555 119.742 12.0388 119.51 11.679C119.278 11.3191 118.994 11.0137 118.658 10.7628C118.322 10.5118 117.945 10.3224 117.529 10.1946C117.117 10.0668 116.679 10.0028 116.215 10.0028C115.377 10.0028 114.626 10.2135 113.963 10.6349C113.305 11.0563 112.784 11.6742 112.401 12.4886C112.022 13.303 111.833 14.2973 111.833 15.4716C111.833 16.6553 112.022 17.6544 112.401 18.4688C112.784 19.2831 113.308 19.8987 113.971 20.3153C114.633 20.732 115.379 20.9403 116.208 20.9403C116.667 20.9403 117.103 20.8788 117.515 20.7557C117.931 20.6278 118.308 20.4408 118.644 20.1946C118.98 19.9484 119.264 19.6477 119.496 19.2926C119.733 18.9328 119.896 18.5208 119.986 18.0568L122.202 18.0639C122.084 18.7789 121.854 19.437 121.513 20.0384C121.177 20.6349 120.744 21.151 120.213 21.5866C119.688 22.0175 119.087 22.3513 118.409 22.5881C117.732 22.8248 116.994 22.9432 116.194 22.9432C114.934 22.9432 113.812 22.6449 112.827 22.0483C111.842 21.447 111.066 20.5876 110.498 19.4702C109.934 18.3527 109.652 17.0199 109.652 15.4716C109.652 13.9186 109.936 12.5857 110.505 11.473C111.073 10.3556 111.849 9.49858 112.834 8.90199C113.819 8.30066 114.939 8 116.194 8C116.965 8 117.685 8.11127 118.353 8.33381C119.025 8.55161 119.629 8.87358 120.164 9.29972C120.699 9.72112 121.141 10.2372 121.492 10.848C121.842 11.4541 122.079 12.1477 122.202 12.929Z" fill="black"/>
<path d="M131.153 22.9645C130.13 22.9645 129.238 22.7301 128.475 22.2614C127.713 21.7926 127.121 21.1368 126.7 20.294C126.278 19.4512 126.068 18.4664 126.068 17.3395C126.068 16.2079 126.278 15.2183 126.7 14.3707C127.121 13.5232 127.713 12.8651 128.475 12.3963C129.238 11.9276 130.13 11.6932 131.153 11.6932C132.176 11.6932 133.068 11.9276 133.83 12.3963C134.593 12.8651 135.185 13.5232 135.606 14.3707C136.027 15.2183 136.238 16.2079 136.238 17.3395C136.238 18.4664 136.027 19.4512 135.606 20.294C135.185 21.1368 134.593 21.7926 133.83 22.2614C133.068 22.7301 132.176 22.9645 131.153 22.9645ZM131.16 21.1818C131.823 21.1818 132.372 21.0066 132.808 20.6562C133.243 20.3059 133.565 19.8395 133.774 19.2571C133.987 18.6747 134.093 18.0331 134.093 17.3324C134.093 16.6364 133.987 15.9972 133.774 15.4148C133.565 14.8277 133.243 14.3565 132.808 14.0014C132.372 13.6463 131.823 13.4688 131.16 13.4688C130.492 13.4688 129.938 13.6463 129.498 14.0014C129.062 14.3565 128.738 14.8277 128.525 15.4148C128.317 15.9972 128.213 16.6364 128.213 17.3324C128.213 18.0331 128.317 18.6747 128.525 19.2571C128.738 19.8395 129.062 20.3059 129.498 20.6562C129.938 21.0066 130.492 21.1818 131.16 21.1818Z" fill="black"/>
<path d="M142.632 8.19886V22.7443H140.508V8.19886H142.632Z" fill="black"/>
<path d="M149.512 8.19886V22.7443H147.389V8.19886H149.512Z" fill="black"/>
<path d="M158.971 22.9645C157.896 22.9645 156.971 22.7348 156.194 22.2756C155.422 21.8116 154.826 21.1605 154.404 20.3224C153.988 19.4796 153.779 18.4924 153.779 17.3608C153.779 16.2434 153.988 15.2585 154.404 14.4062C154.826 13.554 155.413 12.8887 156.166 12.4105C156.923 11.9323 157.809 11.6932 158.822 11.6932C159.437 11.6932 160.034 11.795 160.612 11.9986C161.189 12.2022 161.708 12.5218 162.167 12.9574C162.626 13.393 162.989 13.9588 163.254 14.6548C163.519 15.3461 163.651 16.1866 163.651 17.1761V17.929H154.98V16.3381H161.571C161.571 15.7794 161.457 15.2846 161.23 14.8537C161.002 14.4181 160.683 14.0748 160.271 13.8239C159.864 13.5729 159.385 13.4474 158.836 13.4474C158.24 13.4474 157.719 13.5942 157.274 13.8878C156.833 14.1766 156.492 14.5554 156.251 15.0241C156.014 15.4882 155.896 15.9924 155.896 16.5369V17.7798C155.896 18.509 156.024 19.1293 156.279 19.6406C156.54 20.152 156.902 20.5426 157.366 20.8125C157.83 21.0777 158.372 21.2102 158.992 21.2102C159.395 21.2102 159.762 21.1534 160.093 21.0398C160.425 20.9214 160.711 20.7462 160.953 20.5142C161.194 20.2822 161.379 19.9957 161.507 19.6548L163.517 20.017C163.356 20.6089 163.067 21.1274 162.65 21.5724C162.238 22.0128 161.72 22.3561 161.095 22.6023C160.474 22.8438 159.767 22.9645 158.971 22.9645Z" fill="black"/>
<path d="M172.503 22.9645C171.447 22.9645 170.538 22.7254 169.776 22.2472C169.018 21.7642 168.436 21.099 168.028 20.2514C167.621 19.4039 167.418 18.4332 167.418 17.3395C167.418 16.2315 167.626 15.2538 168.043 14.4062C168.459 13.554 169.046 12.8887 169.804 12.4105C170.562 11.9323 171.454 11.6932 172.482 11.6932C173.31 11.6932 174.049 11.8471 174.697 12.1548C175.346 12.4579 175.869 12.884 176.267 13.4332C176.67 13.9825 176.909 14.6241 176.984 15.358H174.918C174.804 14.8466 174.544 14.4063 174.136 14.0369C173.734 13.6676 173.194 13.483 172.517 13.483C171.925 13.483 171.407 13.6392 170.962 13.9517C170.521 14.2595 170.178 14.6998 169.932 15.2727C169.686 15.8409 169.562 16.5133 169.562 17.2898C169.562 18.0852 169.683 18.7718 169.925 19.3494C170.166 19.9271 170.507 20.3745 170.947 20.6918C171.393 21.009 171.916 21.1676 172.517 21.1676C172.92 21.1676 173.284 21.0942 173.611 20.9474C173.942 20.7959 174.219 20.5805 174.442 20.3011C174.669 20.0218 174.828 19.6856 174.918 19.2926H176.984C176.909 19.9981 176.679 20.6278 176.295 21.1818C175.912 21.7358 175.398 22.1714 174.754 22.4886C174.115 22.8059 173.365 22.9645 172.503 22.9645Z" fill="black"/>
<path d="M186.248 11.8352V13.5398H180.289V11.8352H186.248ZM181.887 9.22159H184.01V19.5412C184.01 19.9531 184.072 20.2633 184.195 20.4716C184.318 20.6752 184.477 20.8149 184.671 20.8906C184.87 20.9616 185.085 20.9972 185.317 20.9972C185.488 20.9972 185.637 20.9853 185.765 20.9616C185.893 20.938 185.992 20.919 186.063 20.9048L186.447 22.6591C186.323 22.7064 186.148 22.7538 185.921 22.8011C185.694 22.8532 185.41 22.8816 185.069 22.8864C184.51 22.8958 183.989 22.7964 183.506 22.5881C183.023 22.3797 182.633 22.0578 182.334 21.6222C182.036 21.1866 181.887 20.6397 181.887 19.9815V9.22159Z" fill="black"/>
</svg>
