<svg width="50" height="50" viewBox="0 0 50 50" fill="none" xmlns="http://www.w3.org/2000/svg">
<path d="M35.2265 3.65588L33.0358 1.45278C31.14 -0.453766 28.0619 -0.488173 26.1239 1.37552L10.5452 16.3561L8.47916 14.228C6.58646 12.2785 3.46878 12.2296 1.51563 14.1188L0 15.5848L8.04915 23.8755C9.40108 25.268 11.628 25.3029 13.0231 23.9535L15.5492 21.5102L15.5103 21.4701C22.8136 13.8782 33.4291 3.11152 35.2265 3.65588Z" fill="white"/>
<path d="M41.9945 11.0642C41.9024 10.9676 41.8061 10.8774 41.7061 10.7937L40.248 9.26992C38.3695 7.30678 35.2523 7.23534 33.2855 9.11035L31.7592 10.5654L39.5337 18.6901L39.5453 18.6792L41.6064 20.8393C42.4785 21.7533 42.9649 22.9671 42.9649 24.2293V38.0626C42.9649 40.7773 40.7601 42.978 38.0403 42.978H19.0456C16.3251 42.978 14.121 40.7779 14.121 38.0639V28.2318C11.3407 29.2751 9.80075 29.2637 7.0859 28.2318V39.467H7.16763C7.86344 45.399 12.9166 50 19.0456 50H38.0403C44.6454 50 50 44.6555 50 38.0626V24.2293C50 21.164 48.8187 18.2162 46.7008 15.9966L41.9945 11.0642Z" fill="white"/>
</svg>
