<svg width="159" height="30" viewBox="0 0 159 30" fill="none" xmlns="http://www.w3.org/2000/svg">
<path d="M21.1359 2.19353L19.8215 0.871668C18.684 -0.272259 16.8372 -0.292904 15.6743 0.82531L6.32713 9.81364L5.0875 8.5368C3.95188 7.36709 2.08127 7.33775 0.90938 8.47126L0 9.35086L4.82949 14.3253C5.64065 15.1608 6.97681 15.1818 7.81387 14.3721L9.3295 12.9061L9.30617 12.8821C13.6881 8.3269 20.0575 1.86691 21.1359 2.19353Z" fill="black"/>
<path d="M25.1967 6.63853C25.1414 6.58058 25.0836 6.52647 25.0237 6.4762L24.1488 5.56195C23.0217 4.38407 21.1514 4.3412 19.9713 5.46621L19.0555 6.33921L23.7202 11.2141L23.7272 11.2075L24.9638 12.5036C25.4871 13.052 25.7789 13.7803 25.7789 14.5376V22.8376C25.7789 24.4664 24.456 25.7868 22.8242 25.7868H11.4274C9.79505 25.7868 8.4726 24.4667 8.4726 22.8384V16.9391C6.8044 17.565 5.88045 17.5583 4.25154 16.9391V23.6802H4.30058C4.71807 27.2394 7.74997 30 11.4274 30H22.8242C26.7873 30 30 26.7933 30 22.8376V14.5376C30 12.6984 29.2912 10.9297 28.0205 9.59794L25.1967 6.63853Z" fill="black"/>
<path d="M56.5497 12.3125H54.3338C54.2486 11.839 54.09 11.4223 53.858 11.0625C53.6259 10.7027 53.3419 10.3973 53.0057 10.1463C52.6695 9.89536 52.2931 9.70597 51.8764 9.57812C51.4645 9.45028 51.0265 9.38636 50.5625 9.38636C49.7244 9.38636 48.974 9.59706 48.3111 10.0185C47.6529 10.4399 47.1321 11.0578 46.7486 11.8722C46.3698 12.6866 46.1804 13.6809 46.1804 14.8551C46.1804 16.0388 46.3698 17.0379 46.7486 17.8523C47.1321 18.6667 47.6553 19.2822 48.3182 19.6989C48.9811 20.1155 49.7268 20.3239 50.5554 20.3239C51.0147 20.3239 51.4503 20.2623 51.8622 20.1392C52.2789 20.0114 52.6553 19.8243 52.9915 19.5781C53.3277 19.3319 53.6117 19.0313 53.8438 18.6761C54.0805 18.3163 54.2438 17.9044 54.3338 17.4403L56.5497 17.4474C56.4313 18.1624 56.2017 18.8205 55.8608 19.4219C55.5246 20.0185 55.0914 20.5346 54.5611 20.9702C54.0355 21.401 53.4342 21.7348 52.7571 21.9716C52.08 22.2083 51.3414 22.3267 50.5412 22.3267C49.2817 22.3267 48.1596 22.0284 47.1747 21.4318C46.1899 20.8305 45.4134 19.9711 44.8452 18.8537C44.2817 17.7363 44 16.4034 44 14.8551C44 13.3021 44.2841 11.9692 44.8523 10.8565C45.4205 9.73911 46.197 8.8821 47.1818 8.28551C48.1667 7.68419 49.2865 7.38352 50.5412 7.38352C51.313 7.38352 52.0327 7.49479 52.7003 7.71733C53.3726 7.93513 53.9763 8.2571 54.5114 8.68324C55.0464 9.10464 55.4891 9.62074 55.8395 10.2315C56.1899 10.8376 56.4266 11.5312 56.5497 12.3125Z" fill="black"/>
<path d="M65.9158 17.6037V11.2188H68.0465V22.1278H65.9585V20.2386H65.8448C65.5939 20.821 65.1914 21.3063 64.6374 21.6946C64.0882 22.0781 63.404 22.2699 62.5849 22.2699C61.8841 22.2699 61.2638 22.116 60.7241 21.8082C60.189 21.4957 59.7676 21.0341 59.4599 20.4233C59.1568 19.8125 59.0053 19.0573 59.0053 18.1577V11.2188H61.1289V17.902C61.1289 18.6454 61.3349 19.2372 61.7468 19.6776C62.1587 20.1179 62.6938 20.3381 63.3519 20.3381C63.7496 20.3381 64.145 20.2386 64.538 20.0398C64.9357 19.8409 65.2648 19.5402 65.5252 19.1378C65.7904 18.7353 65.9206 18.224 65.9158 17.6037Z" fill="black"/>
<path d="M73.0234 7.58239V22.1278H70.8999V7.58239H73.0234Z" fill="black"/>
<path d="M80.9727 11.2188V12.9233H75.0138V11.2188H80.9727ZM76.6119 8.60511H78.7354V18.9247C78.7354 19.3366 78.797 19.6468 78.9201 19.8551C79.0432 20.0587 79.2018 20.1984 79.396 20.2741C79.5948 20.3452 79.8103 20.3807 80.0423 20.3807C80.2127 20.3807 80.3619 20.3688 80.4897 20.3452C80.6175 20.3215 80.717 20.3026 80.788 20.2884L81.1715 22.0426C81.0484 22.09 80.8732 22.1373 80.646 22.1847C80.4187 22.2367 80.1346 22.2652 79.7937 22.2699C79.235 22.2794 78.7141 22.1799 78.2312 21.9716C77.7482 21.7633 77.3576 21.4413 77.0593 21.0057C76.761 20.5701 76.6119 20.0232 76.6119 19.3651V8.60511Z" fill="black"/>
<path d="M83.7266 22.1278V7.58239H89.0533C90.0855 7.58239 90.9401 7.75284 91.6172 8.09375C92.2943 8.42992 92.8009 8.88684 93.1371 9.46449C93.4732 10.0374 93.6413 10.6837 93.6413 11.4034C93.6413 12.0095 93.5301 12.5208 93.3075 12.9375C93.085 13.3494 92.7867 13.6809 92.4126 13.9318C92.0433 14.178 91.6361 14.358 91.1911 14.4716V14.6136C91.674 14.6373 92.1451 14.7936 92.6044 15.0824C93.0684 15.3665 93.4519 15.7713 93.755 16.2969C94.058 16.8224 94.2095 17.4616 94.2095 18.2145C94.2095 18.9579 94.0343 19.6255 93.6839 20.2173C93.3383 20.8045 92.8033 21.2708 92.0788 21.6165C91.3544 21.9574 90.4287 22.1278 89.3018 22.1278H83.7266ZM85.9212 20.2457H89.0888C90.1399 20.2457 90.8928 20.0421 91.3473 19.6349C91.8018 19.2277 92.0291 18.7188 92.0291 18.108C92.0291 17.6487 91.9131 17.2273 91.6811 16.8438C91.4491 16.4602 91.1177 16.1548 90.6868 15.9276C90.2607 15.7003 89.754 15.5866 89.1669 15.5866H85.9212V20.2457ZM85.9212 13.875H88.8615C89.3539 13.875 89.7966 13.7803 90.1896 13.5909C90.5874 13.4015 90.9022 13.1364 91.1342 12.7955C91.371 12.4498 91.4893 12.0426 91.4893 11.5739C91.4893 10.9725 91.2786 10.4683 90.8572 10.0611C90.4358 9.65388 89.7895 9.45028 88.9183 9.45028H85.9212V13.875Z" fill="black"/>
<path d="M101.237 22.348C100.214 22.348 99.322 22.1136 98.5597 21.6449C97.7973 21.1761 97.2055 20.5204 96.7841 19.6776C96.3627 18.8348 96.152 17.8499 96.152 16.723C96.152 15.5914 96.3627 14.6018 96.7841 13.7543C97.2055 12.9067 97.7973 12.2486 98.5597 11.7798C99.322 11.3111 100.214 11.0767 101.237 11.0767C102.26 11.0767 103.152 11.3111 103.915 11.7798C104.677 12.2486 105.269 12.9067 105.69 13.7543C106.112 14.6018 106.322 15.5914 106.322 16.723C106.322 17.8499 106.112 18.8348 105.69 19.6776C105.269 20.5204 104.677 21.1761 103.915 21.6449C103.152 22.1136 102.26 22.348 101.237 22.348ZM101.244 20.5653C101.907 20.5653 102.456 20.3902 102.892 20.0398C103.328 19.6894 103.65 19.223 103.858 18.6406C104.071 18.0582 104.178 17.4167 104.178 16.7159C104.178 16.0199 104.071 15.3807 103.858 14.7983C103.65 14.2112 103.328 13.7401 102.892 13.3849C102.456 13.0298 101.907 12.8523 101.244 12.8523C100.577 12.8523 100.023 13.0298 99.5824 13.3849C99.1468 13.7401 98.8224 14.2112 98.6094 14.7983C98.401 15.3807 98.2969 16.0199 98.2969 16.7159C98.2969 17.4167 98.401 18.0582 98.6094 18.6406C98.8224 19.223 99.1468 19.6894 99.5824 20.0398C100.023 20.3902 100.577 20.5653 101.244 20.5653Z" fill="black"/>
<path d="M113.288 22.348C112.265 22.348 111.373 22.1136 110.61 21.6449C109.848 21.1761 109.256 20.5204 108.835 19.6776C108.413 18.8348 108.203 17.8499 108.203 16.723C108.203 15.5914 108.413 14.6018 108.835 13.7543C109.256 12.9067 109.848 12.2486 110.61 11.7798C111.373 11.3111 112.265 11.0767 113.288 11.0767C114.311 11.0767 115.203 11.3111 115.966 11.7798C116.728 12.2486 117.32 12.9067 117.741 13.7543C118.163 14.6018 118.373 15.5914 118.373 16.723C118.373 17.8499 118.163 18.8348 117.741 19.6776C117.32 20.5204 116.728 21.1761 115.966 21.6449C115.203 22.1136 114.311 22.348 113.288 22.348ZM113.295 20.5653C113.958 20.5653 114.507 20.3902 114.943 20.0398C115.378 19.6894 115.7 19.223 115.909 18.6406C116.122 18.0582 116.228 17.4167 116.228 16.7159C116.228 16.0199 116.122 15.3807 115.909 14.7983C115.7 14.2112 115.378 13.7401 114.943 13.3849C114.507 13.0298 113.958 12.8523 113.295 12.8523C112.627 12.8523 112.074 13.0298 111.633 13.3849C111.198 13.7401 110.873 14.2112 110.66 14.7983C110.452 15.3807 110.348 16.0199 110.348 16.7159C110.348 17.4167 110.452 18.0582 110.66 18.6406C110.873 19.223 111.198 19.6894 111.633 20.0398C112.074 20.3902 112.627 20.5653 113.295 20.5653Z" fill="black"/>
<path d="M122.697 18.4276L122.683 15.8352H123.052L127.398 11.2188H129.941L124.984 16.4744H124.65L122.697 18.4276ZM120.744 22.1278V7.58239H122.867V22.1278H120.744ZM127.633 22.1278L123.727 16.9432L125.19 15.4588L130.239 22.1278H127.633Z" fill="black"/>
<path d="M131.876 22.1278V11.2188H134V22.1278H131.876ZM132.949 9.53551C132.58 9.53551 132.262 9.41241 131.997 9.16619C131.737 8.91525 131.607 8.61695 131.607 8.27131C131.607 7.92093 131.737 7.62263 131.997 7.37642C132.262 7.12547 132.58 7 132.949 7C133.318 7 133.633 7.12547 133.893 7.37642C134.159 7.62263 134.291 7.92093 134.291 8.27131C134.291 8.61695 134.159 8.91525 133.893 9.16619C133.633 9.41241 133.318 9.53551 132.949 9.53551Z" fill="black"/>
<path d="M138.98 15.6506V22.1278H136.857V11.2188H138.895V12.9943H139.03C139.281 12.4167 139.674 11.9527 140.209 11.6023C140.749 11.2519 141.428 11.0767 142.248 11.0767C142.991 11.0767 143.642 11.233 144.201 11.5455C144.759 11.8532 145.193 12.3125 145.5 12.9233C145.808 13.5341 145.962 14.2893 145.962 15.1889V22.1278H143.838V15.4446C143.838 14.6539 143.632 14.036 143.221 13.5909C142.809 13.1411 142.243 12.9162 141.523 12.9162C141.031 12.9162 140.593 13.0227 140.209 13.2358C139.83 13.4489 139.53 13.7614 139.307 14.1733C139.089 14.5805 138.98 15.0729 138.98 15.6506Z" fill="black"/>
<path d="M153.384 26.446C152.517 26.446 151.772 26.3324 151.147 26.1051C150.526 25.8778 150.02 25.5772 149.627 25.2031C149.234 24.8291 148.94 24.4195 148.746 23.9744L150.571 23.2216C150.699 23.4299 150.87 23.6501 151.083 23.8821C151.301 24.1188 151.594 24.3201 151.963 24.4858C152.337 24.6515 152.818 24.7344 153.405 24.7344C154.21 24.7344 154.875 24.5379 155.401 24.1449C155.926 23.7566 156.189 23.1364 156.189 22.2841V20.1392H156.054C155.926 20.3712 155.742 20.6293 155.5 20.9134C155.264 21.1974 154.937 21.4437 154.52 21.652C154.104 21.8603 153.561 21.9645 152.894 21.9645C152.032 21.9645 151.256 21.7633 150.564 21.3608C149.878 20.9536 149.333 20.3546 148.931 19.5639C148.533 18.7685 148.334 17.7907 148.334 16.6307C148.334 15.4706 148.531 14.4763 148.924 13.6477C149.321 12.8191 149.866 12.1847 150.557 11.7443C151.248 11.2992 152.032 11.0767 152.908 11.0767C153.585 11.0767 154.132 11.1903 154.549 11.4176C154.965 11.6402 155.29 11.9006 155.522 12.1989C155.758 12.4972 155.941 12.7599 156.069 12.9872H156.225V11.2188H158.306V22.3693C158.306 23.3068 158.088 24.0762 157.652 24.6776C157.217 25.2789 156.627 25.724 155.884 26.0128C155.145 26.3016 154.312 26.446 153.384 26.446ZM153.363 20.2031C153.973 20.2031 154.489 20.0611 154.911 19.777C155.337 19.4882 155.659 19.0762 155.877 18.5412C156.099 18.0014 156.211 17.3551 156.211 16.6023C156.211 15.8684 156.102 15.2221 155.884 14.6634C155.666 14.1046 155.346 13.669 154.925 13.3565C154.504 13.0393 153.983 12.8807 153.363 12.8807C152.723 12.8807 152.191 13.0464 151.765 13.3778C151.338 13.7045 151.016 14.1496 150.799 14.7131C150.586 15.2765 150.479 15.9063 150.479 16.6023C150.479 17.3172 150.588 17.9446 150.806 18.4844C151.024 19.0241 151.346 19.4455 151.772 19.7486C152.203 20.0516 152.733 20.2031 153.363 20.2031Z" fill="black"/>
</svg>
